<?xml version="1.0" encoding="UTF-8"?>
<!DOCTYPE svg PUBLIC "-//W3C//DTD SVG 1.1//EN" "http://www.w3.org/Graphics/SVG/1.1/DTD/svg11.dtd">
<svg xmlns="http://www.w3.org/2000/svg" version="1.1" width="500px" height="500px" style="shape-rendering:geometricPrecision; text-rendering:geometricPrecision; image-rendering:optimizeQuality; fill-rule:evenodd; clip-rule:evenodd" xmlns:xlink="http://www.w3.org/1999/xlink">
<g><path style="opacity:1" fill="#03befe" d="M 132.5,48.5 C 134.954,47.3794 137.621,46.546 140.5,46C 124.509,35.6702 108.509,25.3369 92.5,15C 90.1902,14.5034 87.8568,14.3367 85.5,14.5C 89.5911,13.1049 93.9244,12.2715 98.5,12C 115.497,11.5001 132.497,11.3334 149.5,11.5C 149.5,23.8333 149.5,36.1667 149.5,48.5C 143.833,48.5 138.167,48.5 132.5,48.5 Z"/></g>
<g><path style="opacity:1" fill="#0dabf7" d="M 360.5,11.5 C 364.761,12.1256 369.094,12.9589 373.5,14C 403.009,33.663 432.675,53.163 462.5,72.5C 463.496,78.7985 463.83,85.1318 463.5,91.5C 463.806,94.3854 463.473,97.0521 462.5,99.5C 461.58,97.1191 461.58,94.7857 462.5,92.5C 447.629,82.6515 432.629,72.9849 417.5,63.5C 416.478,63.8555 415.811,64.5222 415.5,65.5C 410.156,57.4972 402.823,52.1639 393.5,49.5C 393.586,48.5041 393.252,47.6708 392.5,47C 381.977,41.1481 371.977,34.4815 362.5,27C 357.786,25.2705 353.453,23.1038 349.5,20.5C 349.5,17.5 349.5,14.5 349.5,11.5C 353.167,11.5 356.833,11.5 360.5,11.5 Z"/></g>
<g><path style="opacity:1" fill="#0fb0f9" d="M 360.5,11.5 C 367.5,11.5 374.5,11.5 381.5,11.5C 396.292,21.6955 411.959,31.8622 428.5,42C 432.395,45.1515 435.895,47.9848 439,50.5C 439.333,50.1667 439.667,49.8333 440,49.5C 446.123,53.4673 452.623,57.9673 459.5,63C 460.448,63.4828 461.448,63.6495 462.5,63.5C 462.263,64.791 462.596,65.791 463.5,66.5C 464.787,74.9619 464.787,83.2953 463.5,91.5C 463.83,85.1318 463.496,78.7985 462.5,72.5C 432.675,53.163 403.009,33.663 373.5,14C 369.094,12.9589 364.761,12.1256 360.5,11.5 Z"/></g>
<g><path style="opacity:1" fill="#0eb3fa" d="M 381.5,11.5 C 392.689,10.9992 403.689,11.9992 414.5,14.5C 414.33,15.8221 414.663,16.9887 415.5,18C 428.735,26.7502 442.068,35.2502 455.5,43.5C 459.838,50.4847 462.505,58.1514 463.5,66.5C 462.596,65.791 462.263,64.791 462.5,63.5C 461.448,63.6495 460.448,63.4828 459.5,63C 452.623,57.9673 446.123,53.4673 440,49.5C 439.667,49.8333 439.333,50.1667 439,50.5C 435.895,47.9848 432.395,45.1515 428.5,42C 411.959,31.8622 396.292,21.6955 381.5,11.5 Z"/></g>
<g><path style="opacity:1" fill="#09b8fc" d="M 85.5,14.5 C 87.8568,14.3367 90.1902,14.5034 92.5,15C 108.509,25.3369 124.509,35.6702 140.5,46C 137.621,46.546 134.954,47.3794 132.5,48.5C 124.138,48.3348 115.805,48.6682 107.5,49.5C 108.058,48.2101 109.058,47.3768 110.5,47C 97.0089,38.1798 83.5089,29.3464 70,20.5C 68.6439,21.3802 67.1439,21.7135 65.5,21.5C 71.5286,17.6002 78.1953,15.2669 85.5,14.5 Z"/></g>
<g><path style="opacity:1" fill="#1db9fb" d="M 414.5,14.5 C 432.932,17.622 446.598,27.2887 455.5,43.5C 442.068,35.2502 428.735,26.7502 415.5,18C 414.663,16.9887 414.33,15.8221 414.5,14.5 Z"/></g>
<g><path style="opacity:1" fill="#11a5f5" d="M 349.5,20.5 C 353.453,23.1038 357.786,25.2705 362.5,27C 371.977,34.4815 381.977,41.1481 392.5,47C 393.252,47.6708 393.586,48.5041 393.5,49.5C 378.853,48.6267 364.186,48.2933 349.5,48.5C 349.5,39.1667 349.5,29.8333 349.5,20.5 Z"/></g>
<g><path style="opacity:1" fill="#0eb2fa" d="M 107.5,49.5 C 100.495,51.1702 94.1614,54.1702 88.5,58.5C 88.5,57.5 88.5,56.5 88.5,55.5C 75.6774,47.8863 63.344,40.2196 51.5,32.5C 55.4015,27.8798 60.0682,24.2132 65.5,21.5C 67.1439,21.7135 68.6439,21.3802 70,20.5C 83.5089,29.3464 97.0089,38.1798 110.5,47C 109.058,47.3768 108.058,48.2101 107.5,49.5 Z"/></g>
<g><path style="opacity:1" fill="#11acf7" d="M 51.5,32.5 C 63.344,40.2196 75.6774,47.8863 88.5,55.5C 88.5,56.5 88.5,57.5 88.5,58.5C 85.2983,62.9085 82.6316,67.5751 80.5,72.5C 76.7693,68.1212 72.1026,64.9545 66.5,63C 58.7503,57.1868 51.0836,52.0201 43.5,47.5C 42.5832,48.1272 41.5832,48.4606 40.5,48.5C 43.1919,42.4337 46.8586,37.1004 51.5,32.5 Z"/></g>
<g><path style="opacity:1" fill="#17a5f5" d="M 80.5,72.5 C 79.2008,82.2139 79.5341,91.8806 81.5,101.5C 77.9167,98.0974 74.0833,94.764 70,91.5C 69.2825,92.4506 68.4491,92.6172 67.5,92C 66.1667,91.3333 66.1667,90.6667 67.5,90C 64.8094,90.0539 62.9761,88.8872 62,86.5C 61.6667,86.8333 61.3333,87.1667 61,87.5C 53.0073,80.9109 44.8406,75.2443 36.5,70.5C 35.5078,74.7828 35.1744,79.1161 35.5,83.5C 35.5,86.1667 35.5,88.8333 35.5,91.5C 33.1028,76.7946 34.7694,62.4613 40.5,48.5C 41.5832,48.4606 42.5832,48.1272 43.5,47.5C 51.0836,52.0201 58.7503,57.1868 66.5,63C 72.1026,64.9545 76.7693,68.1212 80.5,72.5 Z"/></g>
<g><path style="opacity:1" fill="#15a6f5" d="M 462.5,99.5 C 462.376,104.049 461.709,108.382 460.5,112.5C 447.046,102.645 433.379,93.6448 419.5,85.5C 419.453,78.5457 418.12,71.8791 415.5,65.5C 415.811,64.5222 416.478,63.8555 417.5,63.5C 432.629,72.9849 447.629,82.6515 462.5,92.5C 461.58,94.7857 461.58,97.1191 462.5,99.5 Z"/></g>
<g><path style="opacity:1" fill="#159ef2" d="M 81.5,101.5 C 82.0209,105.481 82.3542,109.481 82.5,113.5C 66.8957,103.21 51.229,93.2099 35.5,83.5C 35.1744,79.1161 35.5078,74.7828 36.5,70.5C 44.8406,75.2443 53.0073,80.9109 61,87.5C 61.3333,87.1667 61.6667,86.8333 62,86.5C 62.9761,88.8872 64.8094,90.0539 67.5,90C 66.1667,90.6667 66.1667,91.3333 67.5,92C 68.4491,92.6172 69.2825,92.4506 70,91.5C 74.0833,94.764 77.9167,98.0974 81.5,101.5 Z"/></g>
<g><path style="opacity:1" fill="#1e99f0" d="M 35.5,83.5 C 51.229,93.2099 66.8957,103.21 82.5,113.5C 84.2281,122.978 85.5615,132.645 86.5,142.5C 85.0824,140.813 83.7491,138.98 82.5,137C 68.234,127.953 54.0673,118.786 40,109.5C 39.7679,110.737 39.2679,111.737 38.5,112.5C 36.7646,105.736 35.7646,98.7363 35.5,91.5C 35.5,88.8333 35.5,86.1667 35.5,83.5 Z"/></g>
<g><path style="opacity:1" fill="#1aa0f3" d="M 419.5,85.5 C 433.379,93.6448 447.046,102.645 460.5,112.5C 460.322,119.749 459.322,126.749 457.5,133.5C 456.933,131.97 456.267,130.47 455.5,129C 444.672,121.419 433.672,114.085 422.5,107C 420.846,106.392 419.179,105.892 417.5,105.5C 417.838,98.7965 418.505,92.1299 419.5,85.5 Z"/></g>
<g><path style="opacity:1" fill="#3574e3" d="M 171.5,100.5 C 181.268,116.524 190.934,132.69 200.5,149C 199.263,149.232 198.263,149.732 197.5,150.5C 194.615,150.194 191.948,150.527 189.5,151.5C 188.167,152.167 186.833,152.833 185.5,153.5C 183.896,154.287 183.229,155.62 183.5,157.5C 182.672,163.987 182.172,170.654 182,177.5C 181.333,176.833 180.667,176.167 180,175.5C 167.232,153.072 154.065,130.906 140.5,109C 143.215,108.125 144.548,106.292 144.5,103.5C 146.148,102.073 148.148,101.24 150.5,101C 157.492,100.5 164.492,100.334 171.5,100.5 Z"/></g>
<g><path style="opacity:1" fill="#2d79e5" d="M 171.5,100.5 C 175.5,100.5 179.5,100.5 183.5,100.5C 192.153,117.145 201.82,133.145 212.5,148.5C 212.137,149.183 211.804,149.85 211.5,150.5C 206.833,150.5 202.167,150.5 197.5,150.5C 198.263,149.732 199.263,149.232 200.5,149C 190.934,132.69 181.268,116.524 171.5,100.5 Z"/></g>
<g><path style="opacity:1" fill="#2a7de6" d="M 183.5,100.5 C 186.167,100.5 188.833,100.5 191.5,100.5C 196.566,111.733 203.066,122.067 211,131.5C 214.276,137.862 217.443,144.195 220.5,150.5C 217.5,150.5 214.5,150.5 211.5,150.5C 211.804,149.85 212.137,149.183 212.5,148.5C 201.82,133.145 192.153,117.145 183.5,100.5 Z"/></g>
<g><path style="opacity:1" fill="#3083e8" d="M 191.5,100.5 C 194.5,100.5 197.5,100.5 200.5,100.5C 210.683,117.02 221.017,133.52 231.5,150C 230.095,151.269 228.429,151.769 226.5,151.5C 214.167,151.5 201.833,151.5 189.5,151.5C 191.948,150.527 194.615,150.194 197.5,150.5C 202.167,150.5 206.833,150.5 211.5,150.5C 214.5,150.5 217.5,150.5 220.5,150.5C 217.443,144.195 214.276,137.862 211,131.5C 203.066,122.067 196.566,111.733 191.5,100.5 Z"/></g>
<g><path style="opacity:1" fill="#2687ea" d="M 200.5,100.5 C 205.5,100.5 210.5,100.5 215.5,100.5C 215.351,101.552 215.517,102.552 216,103.5C 222.423,112.674 228.09,122.34 233,132.5C 246.762,155.699 260.762,178.699 275,201.5C 276.252,204.014 276.752,206.68 276.5,209.5C 274.906,212.764 272.573,215.431 269.5,217.5C 267.301,212.099 264.801,206.765 262,201.5C 255.831,192.5 250.164,183.166 245,173.5C 243.855,172.316 242.688,172.316 241.5,173.5C 241.665,170.15 241.498,166.817 241,163.5C 240.722,162.584 240.222,161.918 239.5,161.5C 236.463,156.482 232.13,153.148 226.5,151.5C 228.429,151.769 230.095,151.269 231.5,150C 221.017,133.52 210.683,117.02 200.5,100.5 Z"/></g>
<g><path style="opacity:1" fill="#228cec" d="M 215.5,100.5 C 219.167,100.5 222.833,100.5 226.5,100.5C 227.833,101.933 229.333,103.267 231,104.5C 245.491,128.14 259.491,152.14 273,176.5C 276.522,181.566 280.022,186.566 283.5,191.5C 282.659,193.379 282.325,195.379 282.5,197.5C 281.54,202.086 279.54,206.086 276.5,209.5C 276.752,206.68 276.252,204.014 275,201.5C 260.762,178.699 246.762,155.699 233,132.5C 228.09,122.34 222.423,112.674 216,103.5C 215.517,102.552 215.351,101.552 215.5,100.5 Z"/></g>
<g><path style="opacity:1" fill="#1d92ee" d="M 226.5,100.5 C 230.931,100.231 235.265,100.564 239.5,101.5C 240.641,103.088 242.141,104.421 244,105.5C 257.415,128.665 271.081,151.665 285,174.5C 285.791,180.296 285.291,185.963 283.5,191.5C 280.022,186.566 276.522,181.566 273,176.5C 259.491,152.14 245.491,128.14 231,104.5C 229.333,103.267 227.833,101.933 226.5,100.5 Z"/></g>
<g><path style="opacity:1" fill="#3d79e4" d="M 144.5,103.5 C 144.548,106.292 143.215,108.125 140.5,109C 154.065,130.906 167.232,153.072 180,175.5C 180.667,176.167 181.333,176.833 182,177.5C 182.172,170.654 182.672,163.987 183.5,157.5C 183.173,167.015 183.506,176.348 184.5,185.5C 185.833,187.5 187.5,189.167 189.5,190.5C 190.568,191.434 191.901,191.768 193.5,191.5C 192.737,192.268 191.737,192.768 190.5,193C 197.651,205.486 205.151,217.653 213,229.5C 216.935,230.138 220.769,230.804 224.5,231.5C 214.735,231.951 205.068,231.284 195.5,229.5C 183.918,210 172.084,190.666 160,171.5C 159.678,169.311 160.178,167.311 161.5,165.5C 162.11,164.609 162.443,163.609 162.5,162.5C 162.67,161.178 162.337,160.011 161.5,159C 157.848,158.501 154.182,158.335 150.5,158.5C 148.898,156.926 146.898,156.259 144.5,156.5C 141.11,151.844 137.776,147.844 134.5,144.5C 134.709,143.914 135.043,143.414 135.5,143C 134.701,140.703 133.534,138.203 132,135.5C 131.501,130.511 131.334,125.511 131.5,120.5C 131.595,118.214 132.262,116.214 133.5,114.5C 134.906,114.027 135.573,113.027 135.5,111.5C 137.233,107.435 140.233,104.768 144.5,103.5 Z"/></g>
<g><path style="opacity:1" fill="#1f9af1" d="M 239.5,101.5 C 247.899,102.206 255.566,104.873 262.5,109.5C 262.343,110.873 262.51,112.207 263,113.5C 271.454,124.743 278.621,136.743 284.5,149.5C 285.183,149.863 285.85,150.196 286.5,150.5C 287.591,160.466 287.758,170.466 287,180.5C 286.568,186.567 285.068,192.233 282.5,197.5C 282.325,195.379 282.659,193.379 283.5,191.5C 285.291,185.963 285.791,180.296 285,174.5C 271.081,151.665 257.415,128.665 244,105.5C 242.141,104.421 240.641,103.088 239.5,101.5 Z"/></g>
<g><path style="opacity:1" fill="#2193ee" d="M 86.5,142.5 C 87.4944,148.456 88.1611,154.456 88.5,160.5C 74.521,151.913 60.1876,142.413 45.5,132C 44.552,131.517 43.552,131.351 42.5,131.5C 42.5,134.5 42.5,137.5 42.5,140.5C 40.3451,131.416 39.0117,122.082 38.5,112.5C 39.2679,111.737 39.7679,110.737 40,109.5C 54.0673,118.786 68.234,127.953 82.5,137C 83.7491,138.98 85.0824,140.813 86.5,142.5 Z"/></g>
<g><path style="opacity:1" fill="#34a5f3" d="M 262.5,109.5 C 276.9,119.284 284.9,132.951 286.5,150.5C 285.85,150.196 285.183,149.863 284.5,149.5C 278.621,136.743 271.454,124.743 263,113.5C 262.51,112.207 262.343,110.873 262.5,109.5 Z"/></g>
<g><path style="opacity:1" fill="#80a5ed" d="M 135.5,111.5 C 135.573,113.027 134.906,114.027 133.5,114.5C 133.427,112.973 134.094,111.973 135.5,111.5 Z"/></g>
<g><path style="opacity:1" fill="#1e99f0" d="M 417.5,105.5 C 419.179,105.892 420.846,106.392 422.5,107C 433.672,114.085 444.672,121.419 455.5,129C 456.267,130.47 456.933,131.97 457.5,133.5C 457.223,140.737 456.223,147.737 454.5,154.5C 453.921,152.133 452.588,150.3 450.5,149C 439.05,142.197 427.884,135.03 417,127.5C 416.292,128.381 415.458,129.047 414.5,129.5C 414.849,121.377 415.849,113.377 417.5,105.5 Z"/></g>
<g><path style="opacity:1" fill="#2192ee" d="M 454.5,154.5 C 454.041,162.042 453.041,169.375 451.5,176.5C 451.649,175.448 451.483,174.448 451,173.5C 450.667,173.833 450.333,174.167 450,174.5C 439.31,166.456 428.477,158.956 417.5,152C 415.452,150.759 413.452,150.592 411.5,151.5C 412.146,143.982 413.146,136.648 414.5,129.5C 415.458,129.047 416.292,128.381 417,127.5C 427.884,135.03 439.05,142.197 450.5,149C 452.588,150.3 453.921,152.133 454.5,154.5 Z"/></g>
<g><path style="opacity:1" fill="#248dec" d="M 88.5,160.5 C 89.9658,168.763 90.9658,177.096 91.5,185.5C 89.2251,182.812 86.5585,180.312 83.5,178C 78.4111,175.248 73.5778,172.082 69,168.5C 68.6667,168.833 68.3333,169.167 68,169.5C 62.3589,164.52 56.1922,160.354 49.5,157C 48.8742,156.25 48.3742,155.416 48,154.5C 46.7153,154.598 45.5486,154.598 44.5,154.5C 43.0285,150.081 42.3618,145.414 42.5,140.5C 42.5,137.5 42.5,134.5 42.5,131.5C 43.552,131.351 44.552,131.517 45.5,132C 60.1876,142.413 74.521,151.913 88.5,160.5 Z"/></g>
<g><path style="opacity:1" fill="#5f8de9" d="M 131.5,120.5 C 131.334,125.511 131.501,130.511 132,135.5C 133.534,138.203 134.701,140.703 135.5,143C 135.043,143.414 134.709,143.914 134.5,144.5C 137.776,147.844 141.11,151.844 144.5,156.5C 138.114,153.941 133.947,149.274 132,142.5C 130.304,135.055 130.137,127.722 131.5,120.5 Z"/></g>
<g><path style="opacity:1" fill="#248cec" d="M 451.5,176.5 C 450.926,182.484 450.593,188.484 450.5,194.5C 449.4,192.723 448.566,190.723 448,188.5C 436.687,181.29 425.854,174.123 415.5,167C 413.17,164.909 411.17,165.075 409.5,167.5C 409.949,162.124 410.616,156.791 411.5,151.5C 413.452,150.592 415.452,150.759 417.5,152C 428.477,158.956 439.31,166.456 450,174.5C 450.333,174.167 450.667,173.833 451,173.5C 451.483,174.448 451.649,175.448 451.5,176.5 Z"/></g>
<g><path style="opacity:1" fill="#2887ea" d="M 91.5,185.5 C 91.824,192.354 91.4907,199.021 90.5,205.5C 89.4324,203.26 87.7658,201.426 85.5,200C 72.9449,191.894 60.2783,184.061 47.5,176.5C 45.9592,169.375 44.9592,162.042 44.5,154.5C 45.5486,154.598 46.7153,154.598 48,154.5C 48.3742,155.416 48.8742,156.25 49.5,157C 56.1922,160.354 62.3589,164.52 68,169.5C 68.3333,169.167 68.6667,168.833 69,168.5C 73.5778,172.082 78.4111,175.248 83.5,178C 86.5585,180.312 89.2251,182.812 91.5,185.5 Z"/></g>
<g><path style="opacity:1" fill="#709aeb" d="M 144.5,156.5 C 146.898,156.259 148.898,156.926 150.5,158.5C 148.102,158.741 146.102,158.074 144.5,156.5 Z"/></g>
<g><path style="opacity:1" fill="#7ea5ed" d="M 150.5,158.5 C 154.182,158.335 157.848,158.501 161.5,159C 162.337,160.011 162.67,161.178 162.5,162.5C 161.733,161.828 161.066,160.995 160.5,160C 156.975,159.821 153.641,159.321 150.5,158.5 Z"/></g>
<g><path style="opacity:1" fill="#2887ea" d="M 450.5,194.5 C 451.389,201.055 453.055,207.388 455.5,213.5C 440.48,204.11 425.313,194.11 410,183.5C 408.63,189.742 408.13,196.075 408.5,202.5C 408.5,203.5 408.5,204.5 408.5,205.5C 407.067,192.929 407.4,180.262 409.5,167.5C 411.17,165.075 413.17,164.909 415.5,167C 425.854,174.123 436.687,181.29 448,188.5C 448.566,190.723 449.4,192.723 450.5,194.5 Z"/></g>
<g><path style="opacity:1" fill="#437de5" d="M 161.5,165.5 C 160.178,167.311 159.678,169.311 160,171.5C 172.084,190.666 183.918,210 195.5,229.5C 205.068,231.284 214.735,231.951 224.5,231.5C 227.833,231.5 231.167,231.5 234.5,231.5C 219.342,232.496 204.009,232.83 188.5,232.5C 186.732,236.044 185.898,240.044 186,244.5C 185.667,245.5 185.333,246.5 185,247.5C 172.365,226.187 159.699,204.854 147,183.5C 147.206,180.394 148.039,177.394 149.5,174.5C 152.418,170.043 156.418,167.043 161.5,165.5 Z"/></g>
<g><path style="opacity:1" fill="#7ca4ed" d="M 185.5,153.5 C 184.57,164.128 184.237,174.795 184.5,185.5C 183.506,176.348 183.173,167.015 183.5,157.5C 183.229,155.62 183.896,154.287 185.5,153.5 Z"/></g>
<g><path style="opacity:1" fill="#7fb4f2" d="M 239.5,161.5 C 240.222,161.918 240.722,162.584 241,163.5C 241.498,166.817 241.665,170.15 241.5,173.5C 241.672,174.492 241.338,175.158 240.5,175.5C 240.647,170.786 240.314,166.119 239.5,161.5 Z"/></g>
<g><path style="opacity:1" fill="#2d82e8" d="M 269.5,217.5 C 266.417,220.908 262.751,223.575 258.5,225.5C 258.628,223.345 258.128,221.345 257,219.5C 251,209.5 245,199.5 239,189.5C 235.905,188.605 232.738,188.605 229.5,189.5C 235.516,186.859 239.182,182.192 240.5,175.5C 241.338,175.158 241.672,174.492 241.5,173.5C 242.688,172.316 243.855,172.316 245,173.5C 250.164,183.166 255.831,192.5 262,201.5C 264.801,206.765 267.301,212.099 269.5,217.5 Z"/></g>
<g><path style="opacity:1" fill="#4c82e7" d="M 149.5,174.5 C 148.039,177.394 147.206,180.394 147,183.5C 159.699,204.854 172.365,226.187 185,247.5C 185.333,246.5 185.667,245.5 186,244.5C 185.898,240.044 186.732,236.044 188.5,232.5C 188.667,244.838 188.5,257.171 188,269.5C 187.809,271.708 187.309,273.708 186.5,275.5C 184.77,278.108 182.937,278.108 181,275.5C 171.849,259.2 162.183,243.2 152,227.5C 151.48,229.289 151.813,230.956 153,232.5C 162.735,247.012 171.735,262.012 180,277.5C 181.011,278.337 182.178,278.67 183.5,278.5C 183.5,279.5 183.5,280.5 183.5,281.5C 180.358,281.201 178.191,279.534 177,276.5C 164.198,253.569 150.865,230.902 137,208.5C 137.607,202.182 138.44,195.849 139.5,189.5C 141.272,183.406 144.606,178.406 149.5,174.5 Z"/></g>
<g><path style="opacity:1" fill="#2d83e8" d="M 455.5,213.5 C 460.44,221.267 467.44,226.101 476.5,228C 484.138,228.985 491.804,229.485 499.5,229.5C 499.5,242.833 499.5,256.167 499.5,269.5C 499.167,269.5 498.833,269.5 498.5,269.5C 498.803,264.57 498.469,259.737 497.5,255C 488.569,250.063 479.902,244.73 471.5,239C 470.167,238.333 470.167,237.667 471.5,237C 469.744,236.798 468.078,236.298 466.5,235.5C 458.081,228.573 449.415,223.073 440.5,219C 431.23,213.065 422.23,206.732 413.5,200C 412.207,199.51 410.873,199.343 409.5,199.5C 409.737,200.791 409.404,201.791 408.5,202.5C 408.13,196.075 408.63,189.742 410,183.5C 425.313,194.11 440.48,204.11 455.5,213.5 Z"/></g>
<g><path style="opacity:1" fill="#397de6" d="M 258.5,225.5 C 254.845,227.829 250.845,229.163 246.5,229.5C 247.218,227.863 247.384,226.197 247,224.5C 240.5,214 234,203.5 227.5,193C 216.269,191.544 204.936,191.044 193.5,191.5C 191.901,191.768 190.568,191.434 189.5,190.5C 202.863,190.758 216.196,190.425 229.5,189.5C 232.738,188.605 235.905,188.605 239,189.5C 245,199.5 251,209.5 257,219.5C 258.128,221.345 258.628,223.345 258.5,225.5 Z"/></g>
<g><path style="opacity:1" fill="#2c80e7" d="M 47.5,176.5 C 60.2783,184.061 72.9449,191.894 85.5,200C 87.7658,201.426 89.4324,203.26 90.5,205.5C 89.94,213.18 87.6067,220.18 83.5,226.5C 82.2264,225.811 82.2264,224.977 83.5,224C 73.2394,215.751 62.4061,208.251 51,201.5C 50.0546,201.905 49.3879,202.572 49,203.5C 48.7216,202.584 48.2216,201.918 47.5,201.5C 48.6921,193.178 48.6921,184.845 47.5,176.5 Z"/></g>
<g><path style="opacity:1" fill="#3574e3" d="M 193.5,191.5 C 204.936,191.044 216.269,191.544 227.5,193C 234,203.5 240.5,214 247,224.5C 247.384,226.197 247.218,227.863 246.5,229.5C 242.764,230.989 238.764,231.656 234.5,231.5C 231.167,231.5 227.833,231.5 224.5,231.5C 220.769,230.804 216.935,230.138 213,229.5C 205.151,217.653 197.651,205.486 190.5,193C 191.737,192.768 192.737,192.268 193.5,191.5 Z"/></g>
<g><path style="opacity:1" fill="#2b7de6" d="M 498.5,269.5 C 498.167,269.5 497.833,269.5 497.5,269.5C 497.714,267.856 497.38,266.356 496.5,265C 468.703,247.753 440.536,229.586 412,210.5C 410.812,211.563 410.312,212.897 410.5,214.5C 409.087,211.781 408.42,208.781 408.5,205.5C 408.5,204.5 408.5,203.5 408.5,202.5C 409.404,201.791 409.737,200.791 409.5,199.5C 410.873,199.343 412.207,199.51 413.5,200C 422.23,206.732 431.23,213.065 440.5,219C 449.415,223.073 458.081,228.573 466.5,235.5C 468.078,236.298 469.744,236.798 471.5,237C 470.167,237.667 470.167,238.333 471.5,239C 479.902,244.73 488.569,250.063 497.5,255C 498.469,259.737 498.803,264.57 498.5,269.5 Z"/></g>
<g><path style="opacity:1" fill="#307ae5" d="M 47.5,201.5 C 48.2216,201.918 48.7216,202.584 49,203.5C 49.3879,202.572 50.0546,201.905 51,201.5C 62.4061,208.251 73.2394,215.751 83.5,224C 82.2264,224.977 82.2264,225.811 83.5,226.5C 81.2783,232.264 77.6116,236.931 72.5,240.5C 72.33,239.178 72.6634,238.011 73.5,237C 64.3463,229.921 54.6796,223.587 44.5,218C 42.8034,217.616 41.1368,217.782 39.5,218.5C 43.5051,213.489 46.1717,207.822 47.5,201.5 Z"/></g>
<g><path style="opacity:1" fill="#4f86e8" d="M 139.5,189.5 C 138.44,195.849 137.607,202.182 137,208.5C 150.865,230.902 164.198,253.569 177,276.5C 178.191,279.534 180.358,281.201 183.5,281.5C 183.5,280.5 183.5,279.5 183.5,278.5C 182.178,278.67 181.011,278.337 180,277.5C 171.735,262.012 162.735,247.012 153,232.5C 151.813,230.956 151.48,229.289 152,227.5C 162.183,243.2 171.849,259.2 181,275.5C 182.937,278.108 184.77,278.108 186.5,275.5C 185.1,282.659 181.1,287.659 174.5,290.5C 172.265,290.205 170.265,290.539 168.5,291.5C 166.376,290.969 164.876,289.635 164,287.5C 154.415,271.999 145.082,256.332 136,240.5C 134.755,232.871 133.921,225.205 133.5,217.5C 133.5,217.167 133.5,216.833 133.5,216.5C 134.972,212.081 135.638,207.414 135.5,202.5C 135.769,197.736 137.102,193.403 139.5,189.5 Z"/></g>
<g><path style="opacity:1" fill="#779fed" d="M 135.5,202.5 C 135.638,207.414 134.972,212.081 133.5,216.5C 133.362,211.586 134.028,206.919 135.5,202.5 Z"/></g>
<g><path style="opacity:1" fill="#307ae5" d="M 497.5,269.5 C 488.34,269.27 479.34,270.27 470.5,272.5C 470.511,270.983 471.177,269.816 472.5,269C 463.093,262.304 453.427,256.138 443.5,250.5C 426.291,244.287 415.291,232.287 410.5,214.5C 410.312,212.897 410.812,211.563 412,210.5C 440.536,229.586 468.703,247.753 496.5,265C 497.38,266.356 497.714,267.856 497.5,269.5 Z"/></g>
<g><path style="opacity:1" fill="#3775e3" d="M 72.5,240.5 C 67.7375,245.054 62.0709,248.22 55.5,250C 76.7689,256.674 88.4355,271.174 90.5,293.5C 90.0874,295.89 89.4207,298.223 88.5,300.5C 75.0002,291.875 60.8335,282.541 46,272.5C 45.6667,272.833 45.3333,273.167 45,273.5C 44.3483,271.277 42.8483,270.11 40.5,270C 41.3402,268.334 40.8402,268.167 39,269.5C 27.1208,259.696 14.6208,251.696 1.5,245.5C 1.5,240.167 1.5,234.833 1.5,229.5C 11.8118,229.856 21.8118,228.356 31.5,225C 34.3307,222.999 36.9974,220.833 39.5,218.5C 41.1368,217.782 42.8034,217.616 44.5,218C 54.6796,223.587 64.3463,229.921 73.5,237C 72.6634,238.011 72.33,239.178 72.5,240.5 Z"/></g>
<g><path style="opacity:1" fill="#248dec" d="M 293.5,224.5 C 293.833,224.5 294.167,224.5 294.5,224.5C 301.175,224.334 307.842,224.5 314.5,225C 324.806,241.783 334.972,258.616 345,275.5C 347.364,279.219 348.864,283.219 349.5,287.5C 342.336,288.915 335.336,288.582 328.5,286.5C 331.247,286.813 333.914,286.48 336.5,285.5C 325.085,265.668 313.419,246.002 301.5,226.5C 298.694,225.832 296.028,225.166 293.5,224.5 Z"/></g>
<g><path style="opacity:1" fill="#2587ea" d="M 293.5,224.5 C 296.028,225.166 298.694,225.832 301.5,226.5C 313.419,246.002 325.085,265.668 336.5,285.5C 333.914,286.48 331.247,286.813 328.5,286.5C 326.097,286.552 323.764,286.219 321.5,285.5C 321.5,285.167 321.5,284.833 321.5,284.5C 311.215,265.273 300.382,246.273 289,227.5C 286.959,226.577 284.792,226.244 282.5,226.5C 285.909,225.097 289.575,224.43 293.5,224.5 Z"/></g>
<g><path style="opacity:1" fill="#2293ee" d="M 294.5,224.5 C 304.682,223.283 315.015,223.283 325.5,224.5C 328.104,226.276 330.27,228.609 332,231.5C 336.564,240.963 341.897,249.963 348,258.5C 351.232,265.401 354.899,272.067 359,278.5C 359.49,279.793 359.657,281.127 359.5,282.5C 356.753,285.207 353.42,286.873 349.5,287.5C 348.864,283.219 347.364,279.219 345,275.5C 334.972,258.616 324.806,241.783 314.5,225C 307.842,224.5 301.175,224.334 294.5,224.5 Z"/></g>
<g><path style="opacity:1" fill="#2298f0" d="M 325.5,224.5 C 330.889,225.245 336.222,226.245 341.5,227.5C 341.38,228.586 340.713,229.253 339.5,229.5C 338.218,228.863 337.218,228.863 336.5,229.5C 345.204,244.774 354.371,259.774 364,274.5C 364.483,275.448 364.649,276.448 364.5,277.5C 363.167,279.5 361.5,281.167 359.5,282.5C 359.657,281.127 359.49,279.793 359,278.5C 354.899,272.067 351.232,265.401 348,258.5C 341.897,249.963 336.564,240.963 332,231.5C 330.27,228.609 328.104,226.276 325.5,224.5 Z"/></g>
<g><path style="opacity:1" fill="#2881e8" d="M 278.5,227.5 C 279.568,226.566 280.901,226.232 282.5,226.5C 284.792,226.244 286.959,226.577 289,227.5C 300.382,246.273 311.215,265.273 321.5,284.5C 317.881,283.756 314.215,283.423 310.5,283.5C 310.167,283.5 309.833,283.5 309.5,283.5C 309.5,283.167 309.5,282.833 309.5,282.5C 311.028,282.483 311.528,281.816 311,280.5C 301.266,263.368 291.266,246.368 281,229.5C 280.292,228.619 279.458,227.953 278.5,227.5 Z"/></g>
<g><path style="opacity:1" fill="#2b7ee6" d="M 278.5,227.5 C 279.458,227.953 280.292,228.619 281,229.5C 291.266,246.368 301.266,263.368 311,280.5C 311.528,281.816 311.028,282.483 309.5,282.5C 305.5,282.5 301.5,282.5 297.5,282.5C 299.292,281.691 301.292,281.191 303.5,281C 293.5,264.333 283.5,247.667 273.5,231C 272.207,230.51 270.873,230.343 269.5,230.5C 272.215,228.928 275.215,227.928 278.5,227.5 Z"/></g>
<g><path style="opacity:1" fill="#1e9cf1" d="M 341.5,227.5 C 347.591,229.38 353.257,232.047 358.5,235.5C 361.907,241.311 365.073,247.311 368,253.5C 368.499,258.155 368.666,262.821 368.5,267.5C 368.128,271.297 366.794,274.63 364.5,277.5C 364.649,276.448 364.483,275.448 364,274.5C 354.371,259.774 345.204,244.774 336.5,229.5C 337.218,228.863 338.218,228.863 339.5,229.5C 340.713,229.253 341.38,228.586 341.5,227.5 Z"/></g>
<g><path style="opacity:1" fill="#3f79e4" d="M -0.5,229.5 C 0.166667,229.5 0.833333,229.5 1.5,229.5C 1.5,234.833 1.5,240.167 1.5,245.5C 14.6208,251.696 27.1208,259.696 39,269.5C 40.8402,268.167 41.3402,268.334 40.5,270C 42.8483,270.11 44.3483,271.277 45,273.5C 45.3333,273.167 45.6667,272.833 46,272.5C 60.8335,282.541 75.0002,291.875 88.5,300.5C 89.4207,298.223 90.0874,295.89 90.5,293.5C 91.7949,303.372 91.7949,313.372 90.5,323.5C 89.7784,323.082 89.2784,322.416 89,321.5C 88.7978,323.256 88.2978,324.922 87.5,326.5C 75.2543,318.931 62.7543,310.597 50,301.5C 49.9504,299.256 49.1171,297.589 47.5,296.5C 43.0135,280.178 32.3469,271.345 15.5,270C 10.1771,269.501 4.84372,269.334 -0.5,269.5C -0.5,256.167 -0.5,242.833 -0.5,229.5 Z"/></g>
<g><path style="opacity:1" fill="#2f79e5" d="M 269.5,230.5 C 270.873,230.343 272.207,230.51 273.5,231C 283.5,247.667 293.5,264.333 303.5,281C 301.292,281.191 299.292,281.691 297.5,282.5C 295.167,282.5 292.833,282.5 290.5,282.5C 290.611,281.883 290.944,281.383 291.5,281C 283.126,266.418 274.626,251.918 266,237.5C 264.512,235.84 262.679,234.84 260.5,234.5C 263.088,232.375 266.088,231.042 269.5,230.5 Z"/></g>
<g><path style="opacity:1" fill="#3774e3" d="M 260.5,234.5 C 262.679,234.84 264.512,235.84 266,237.5C 274.626,251.918 283.126,266.418 291.5,281C 290.944,281.383 290.611,281.883 290.5,282.5C 289.5,283.167 288.5,283.833 287.5,284.5C 281.433,286.549 276.1,289.882 271.5,294.5C 270.504,294.586 269.671,294.252 269,293.5C 268,295.167 267,296.833 266,298.5C 256.649,283.797 247.816,268.797 239.5,253.5C 240.95,252.15 241.617,250.484 241.5,248.5C 246.703,242.297 253.036,237.63 260.5,234.5 Z"/></g>
<g><path style="opacity:1" fill="#3babf5" d="M 358.5,235.5 C 368.883,243.981 372.216,254.648 368.5,267.5C 368.666,262.821 368.499,258.155 368,253.5C 365.073,247.311 361.907,241.311 358.5,235.5 Z"/></g>
<g><path style="opacity:1" fill="#598cea" d="M 133.5,217.5 C 133.921,225.205 134.755,232.871 136,240.5C 145.082,256.332 154.415,271.999 164,287.5C 164.876,289.635 166.376,290.969 168.5,291.5C 166.022,292.164 163.355,292.497 160.5,292.5C 155.684,292.577 151.018,291.911 146.5,290.5C 144.895,287.393 142.728,284.726 140,282.5C 138.083,278.142 135.917,274.142 133.5,270.5C 132.167,252.833 132.167,235.167 133.5,217.5 Z"/></g>
<g><path style="opacity:1" fill="#3e79e4" d="M 241.5,248.5 C 241.617,250.484 240.95,252.15 239.5,253.5C 247.816,268.797 256.649,283.797 266,298.5C 267,296.833 268,295.167 269,293.5C 269.671,294.252 270.504,294.586 271.5,294.5C 269.246,298.007 267.246,301.673 265.5,305.5C 263.837,307.438 263.171,309.772 263.5,312.5C 262.834,315.028 262.168,317.694 261.5,320.5C 260.914,320.291 260.414,319.957 260,319.5C 249.806,301.769 239.639,284.102 229.5,266.5C 230.309,264.929 230.643,263.262 230.5,261.5C 233.046,256.281 236.713,251.948 241.5,248.5 Z"/></g>
<g><path style="opacity:1" fill="#3774e3" d="M 443.5,250.5 C 453.427,256.138 463.093,262.304 472.5,269C 471.177,269.816 470.511,270.983 470.5,272.5C 458.383,278.7 451.717,288.7 450.5,302.5C 448.883,303.589 448.05,305.256 448,307.5C 436.317,300.102 424.484,292.269 412.5,284C 413.069,279.904 414.069,275.738 415.5,271.5C 421.424,259.905 430.757,252.905 443.5,250.5 Z"/></g>
<g><path style="opacity:1" fill="#427ce5" d="M 230.5,261.5 C 230.643,263.262 230.309,264.929 229.5,266.5C 239.639,284.102 249.806,301.769 260,319.5C 260.414,319.957 260.914,320.291 261.5,320.5C 262.168,317.694 262.834,315.028 263.5,312.5C 263.5,313.833 263.5,315.167 263.5,316.5C 263.5,317.5 263.5,318.5 263.5,319.5C 263.083,323.817 263.75,327.817 265.5,331.5C 269.5,341.5 276.5,348.5 286.5,352.5C 283.886,352.295 281.552,352.295 279.5,352.5C 288.2,366.572 296.367,380.905 304,395.5C 308.755,402.071 313.255,408.738 317.5,415.5C 317.5,415.833 317.5,416.167 317.5,416.5C 311.5,416.5 305.5,416.5 299.5,416.5C 296.939,415.454 294.773,413.788 293,411.5C 268.721,370.6 244.721,329.6 221,288.5C 220.503,285.854 220.336,283.187 220.5,280.5C 222.548,273.4 225.882,267.067 230.5,261.5 Z"/></g>
<g><path style="opacity:1" fill="#6c98ec" d="M 133.5,270.5 C 135.917,274.142 138.083,278.142 140,282.5C 142.728,284.726 144.895,287.393 146.5,290.5C 138.175,286.535 133.841,279.869 133.5,270.5 Z"/></g>
<g><path style="opacity:1" fill="#3d78e4" d="M 415.5,271.5 C 414.069,275.738 413.069,279.904 412.5,284C 424.484,292.269 436.317,300.102 448,307.5C 448.05,305.256 448.883,303.589 450.5,302.5C 450.578,309.515 450.911,316.515 451.5,323.5C 451.714,327.652 451.38,331.652 450.5,335.5C 438.284,326.99 424.951,318.49 410.5,310C 408.947,304.648 408.281,299.148 408.5,293.5C 409.255,285.572 411.588,278.239 415.5,271.5 Z"/></g>
<g><path style="opacity:1" fill="#85b0ef" d="M 290.5,282.5 C 292.833,282.5 295.167,282.5 297.5,282.5C 301.5,282.5 305.5,282.5 309.5,282.5C 309.5,282.833 309.5,283.167 309.5,283.5C 302.132,283.317 294.799,283.65 287.5,284.5C 288.5,283.833 289.5,283.167 290.5,282.5 Z"/></g>
<g><path style="opacity:1" fill="#73aaef" d="M 310.5,283.5 C 314.215,283.423 317.881,283.756 321.5,284.5C 321.5,284.833 321.5,285.167 321.5,285.5C 317.64,285.192 313.974,284.525 310.5,283.5 Z"/></g>
<g><path style="opacity:1" fill="#4880e6" d="M 220.5,280.5 C 220.336,283.187 220.503,285.854 221,288.5C 244.721,329.6 268.721,370.6 293,411.5C 294.773,413.788 296.939,415.454 299.5,416.5C 297.833,416.5 296.167,416.5 294.5,416.5C 290.081,415.028 285.414,414.362 280.5,414.5C 278.485,413.076 276.152,412.41 273.5,412.5C 270.759,410.997 267.925,409.331 265,407.5C 249.505,379.838 233.505,352.505 217,325.5C 214.826,321.454 213.993,317.121 214.5,312.5C 214.998,307.848 215.331,303.181 215.5,298.5C 215.216,296.585 215.549,294.919 216.5,293.5C 217.924,291.485 218.59,289.152 218.5,286.5C 218.595,284.214 219.262,282.214 220.5,280.5 Z"/></g>
<g><path style="opacity:1" fill="#769fed" d="M 146.5,290.5 C 151.018,291.911 155.684,292.577 160.5,292.5C 163.355,292.497 166.022,292.164 168.5,291.5C 170.265,290.539 172.265,290.205 174.5,290.5C 173.158,291.793 171.491,292.626 169.5,293C 163.5,293.667 157.5,293.667 151.5,293C 149.509,292.626 147.842,291.793 146.5,290.5 Z"/></g>
<g><path style="opacity:1" fill="#7da4ed" d="M 218.5,286.5 C 218.59,289.152 217.924,291.485 216.5,293.5C 216.41,290.848 217.076,288.515 218.5,286.5 Z"/></g>
<g><path style="opacity:1" fill="#437ce5" d="M 47.5,296.5 C 49.1171,297.589 49.9504,299.256 50,301.5C 62.7543,310.597 75.2543,318.931 87.5,326.5C 88.2978,324.922 88.7978,323.256 89,321.5C 89.2784,322.416 89.7784,323.082 90.5,323.5C 89.528,333.59 88.1946,343.59 86.5,353.5C 85.8826,353.389 85.3826,353.056 85,352.5C 84.6667,353.833 84.3333,355.167 84,356.5C 71.5747,348.705 59.408,340.538 47.5,332C 48.6787,329.204 48.6787,326.371 47.5,323.5C 48.6917,314.491 48.6917,305.491 47.5,296.5 Z"/></g>
<g><path style="opacity:1" fill="#82a7ee" d="M 215.5,298.5 C 215.331,303.181 214.998,307.848 214.5,312.5C 214.167,312.5 213.833,312.5 213.5,312.5C 213.362,307.586 214.028,302.919 215.5,298.5 Z"/></g>
<g><path style="opacity:1" fill="#9bb8f1" d="M 265.5,305.5 C 265.069,309.337 264.402,313.003 263.5,316.5C 263.5,315.167 263.5,313.833 263.5,312.5C 263.171,309.772 263.837,307.438 265.5,305.5 Z"/></g>
<g><path style="opacity:1" fill="#5186e8" d="M 213.5,312.5 C 213.833,312.5 214.167,312.5 214.5,312.5C 213.993,317.121 214.826,321.454 217,325.5C 233.505,352.505 249.505,379.838 265,407.5C 267.925,409.331 270.759,410.997 273.5,412.5C 258.29,408.901 245.623,401.234 235.5,389.5C 228.616,377.066 222.283,364.399 216.5,351.5C 215.075,348.097 214.242,344.43 214,340.5C 213.5,331.173 213.334,321.839 213.5,312.5 Z"/></g>
<g><path style="opacity:1" fill="#4981e7" d="M 47.5,323.5 C 48.6787,326.371 48.6787,329.204 47.5,332C 59.408,340.538 71.5747,348.705 84,356.5C 84.3333,355.167 84.6667,353.833 85,352.5C 85.3826,353.056 85.8826,353.389 86.5,353.5C 85.4589,365.203 84.1256,376.87 82.5,388.5C 81.1411,389.007 80.1411,390.007 79.5,391.5C 75.4543,389.226 71.4543,386.892 67.5,384.5C 66.7492,383.624 66.2492,382.624 66,381.5C 65.2825,382.451 64.4491,382.617 63.5,382C 56.4664,377.364 49.7998,372.864 43.5,368.5C 44.3354,362.914 44.3354,357.247 43.5,351.5C 44.1986,341.943 45.5319,332.61 47.5,323.5 Z"/></g>
<g><path style="opacity:1" fill="#7ea4ed" d="M 263.5,319.5 C 264.482,323.316 265.149,327.316 265.5,331.5C 263.75,327.817 263.083,323.817 263.5,319.5 Z"/></g>
<g><path style="opacity:1" fill="#447de5" d="M 408.5,293.5 C 408.281,299.148 408.947,304.648 410.5,310C 424.951,318.49 438.284,326.99 450.5,335.5C 451.38,331.652 451.714,327.652 451.5,323.5C 454.135,337.277 456.135,351.277 457.5,365.5C 456.691,367.292 456.191,369.292 456,371.5C 441.746,361.52 427.579,352.353 413.5,344C 412.767,340.455 411.767,336.955 410.5,333.5C 411.777,332.078 411.443,331.078 409.5,330.5C 407.377,318.085 407.044,305.751 408.5,293.5 Z"/></g>
<g><path style="opacity:1" fill="#4a81e7" d="M 409.5,330.5 C 411.443,331.078 411.777,332.078 410.5,333.5C 411.767,336.955 412.767,340.455 413.5,344C 427.579,352.353 441.746,361.52 456,371.5C 456.191,369.292 456.691,367.292 457.5,365.5C 460.059,378.953 462.059,392.619 463.5,406.5C 463.838,409.157 463.171,411.49 461.5,413.5C 446.885,403.039 431.885,393.372 416.5,384.5C 413.691,366.699 411.358,348.699 409.5,330.5 Z"/></g>
<g><path style="opacity:1" fill="#307be5" d="M 334.5,349.5 C 340.206,349.171 345.872,349.505 351.5,350.5C 358,361.5 364.5,372.5 371,383.5C 371.167,384.5 371.333,385.5 371.5,386.5C 371.046,388.694 370.046,390.527 368.5,392C 368.743,392.902 369.077,393.735 369.5,394.5C 367.478,398.522 364.478,401.522 360.5,403.5C 360.33,402.178 360.663,401.011 361.5,400C 352.725,384.285 343.558,368.785 334,353.5C 333.196,352.196 332.029,351.529 330.5,351.5C 327.885,352.269 325.219,352.603 322.5,352.5C 322.5,352.167 322.5,351.833 322.5,351.5C 326.36,350.196 330.36,349.529 334.5,349.5 Z"/></g>
<g><path style="opacity:1" fill="#3785e9" d="M 334.5,349.5 C 340.987,348.346 347.654,348.179 354.5,349C 358.346,350.086 361.68,351.919 364.5,354.5C 365.912,360.334 368.579,365.334 372.5,369.5C 373.573,375.115 373.74,380.782 373,386.5C 372.613,389.599 371.446,392.266 369.5,394.5C 369.077,393.735 368.743,392.902 368.5,392C 370.046,390.527 371.046,388.694 371.5,386.5C 371.333,385.5 371.167,384.5 371,383.5C 364.5,372.5 358,361.5 351.5,350.5C 345.872,349.505 340.206,349.171 334.5,349.5 Z"/></g>
<g><path style="opacity:1" fill="#3c78e4" d="M 286.5,352.5 C 288.515,353.924 290.848,354.59 293.5,354.5C 295.265,355.461 297.265,355.795 299.5,355.5C 299.351,356.552 299.517,357.552 300,358.5C 310.516,375.703 320.85,393.036 331,410.5C 332.11,412.037 333.61,412.703 335.5,412.5C 335.5,413.167 335.5,413.833 335.5,414.5C 334.5,414.5 333.5,414.5 332.5,414.5C 327.482,414.613 322.482,414.947 317.5,415.5C 313.255,408.738 308.755,402.071 304,395.5C 296.367,380.905 288.2,366.572 279.5,352.5C 281.552,352.295 283.886,352.295 286.5,352.5 Z"/></g>
<g><path style="opacity:1" fill="#3574e3" d="M 360.5,403.5 C 356.941,407.115 352.607,409.449 347.5,410.5C 343.5,411.167 339.5,411.833 335.5,412.5C 333.61,412.703 332.11,412.037 331,410.5C 320.85,393.036 310.516,375.703 300,358.5C 299.517,357.552 299.351,356.552 299.5,355.5C 307.265,355.152 314.932,354.152 322.5,352.5C 325.219,352.603 327.885,352.269 330.5,351.5C 332.029,351.529 333.196,352.196 334,353.5C 343.558,368.785 352.725,384.285 361.5,400C 360.663,401.011 360.33,402.178 360.5,403.5 Z"/></g>
<g><path style="opacity:1" fill="#8aacee" d="M 286.5,352.5 C 290.36,352.808 294.026,353.475 297.5,354.5C 296.167,354.5 294.833,354.5 293.5,354.5C 290.848,354.59 288.515,353.924 286.5,352.5 Z"/></g>
<g><path style="opacity:1" fill="#5e8de8" d="M 322.5,351.5 C 322.5,351.833 322.5,352.167 322.5,352.5C 314.932,354.152 307.265,355.152 299.5,355.5C 297.265,355.795 295.265,355.461 293.5,354.5C 294.833,354.5 296.167,354.5 297.5,354.5C 305.876,353.829 314.21,352.829 322.5,351.5 Z"/></g>
<g><path style="opacity:1" fill="#4f95ec" d="M 364.5,354.5 C 368.978,358.453 371.645,363.453 372.5,369.5C 368.579,365.334 365.912,360.334 364.5,354.5 Z"/></g>
<g><path style="opacity:1" fill="#5086e8" d="M 43.5,351.5 C 44.3354,357.247 44.3354,362.914 43.5,368.5C 49.7998,372.864 56.4664,377.364 63.5,382C 64.4491,382.617 65.2825,382.451 66,381.5C 66.2492,382.624 66.7492,383.624 67.5,384.5C 71.4543,386.892 75.4543,389.226 79.5,391.5C 80.1411,390.007 81.1411,389.007 82.5,388.5C 81.0609,398.452 80.0609,408.452 79.5,418.5C 79.4894,420.686 78.4894,421.519 76.5,421C 65.2186,413.742 53.2186,405.909 40.5,397.5C 39.4756,396.148 38.4756,394.815 37.5,393.5C 38.8652,379.277 40.8652,365.277 43.5,351.5 Z"/></g>
<g><path style="opacity:1" fill="#6593eb" d="M 216.5,351.5 C 222.283,364.399 228.616,377.066 235.5,389.5C 226.01,378.519 219.676,365.853 216.5,351.5 Z"/></g>
<g><path style="opacity:1" fill="#4f86e8" d="M 416.5,384.5 C 431.885,393.372 446.885,403.039 461.5,413.5C 463.171,411.49 463.838,409.157 463.5,406.5C 464.997,417.764 464.664,429.097 462.5,440.5C 461.033,437.742 460.367,438.075 460.5,441.5C 458.692,441.509 457.025,441.009 455.5,440C 445.124,433.484 434.791,426.984 424.5,420.5C 421.857,418.364 420.191,415.697 419.5,412.5C 418.172,403.209 417.172,393.876 416.5,384.5 Z"/></g>
<g><path style="opacity:1" fill="#558ae9" d="M 37.5,393.5 C 38.4756,394.815 39.4756,396.148 40.5,397.5C 53.2186,405.909 65.2186,413.742 76.5,421C 78.4894,421.519 79.4894,420.686 79.5,418.5C 81.705,435.543 91.3717,445.71 108.5,449C 122.163,449.5 135.829,449.667 149.5,449.5C 149.5,461.833 149.5,474.167 149.5,486.5C 142.159,486.666 134.826,486.5 127.5,486C 113.809,477.281 99.8089,467.948 85.5,458C 84.1667,457.667 82.8333,457.333 81.5,457C 79.0087,454.126 76.5087,451.96 74,450.5C 73.6667,450.833 73.3333,451.167 73,451.5C 63.6738,444.42 53.6738,437.42 43,430.5C 42.6667,430.833 42.3333,431.167 42,431.5C 41.5581,429.321 40.5581,428.655 39,429.5C 38.3848,427.884 37.3848,426.551 36,425.5C 35.5005,419.175 35.3338,412.842 35.5,406.5C 35.6245,401.951 36.2911,397.618 37.5,393.5 Z"/></g>
<g><path style="opacity:1" fill="#739aeb" d="M 347.5,410.5 C 343.785,412.405 339.785,413.738 335.5,414.5C 335.5,413.833 335.5,413.167 335.5,412.5C 339.5,411.833 343.5,411.167 347.5,410.5 Z"/></g>
<g><path style="opacity:1" fill="#79a1ed" d="M 273.5,412.5 C 276.152,412.41 278.485,413.076 280.5,414.5C 277.848,414.59 275.515,413.924 273.5,412.5 Z"/></g>
<g><path style="opacity:1" fill="#78a1ed" d="M 280.5,414.5 C 285.414,414.362 290.081,415.028 294.5,416.5C 289.586,416.638 284.919,415.972 280.5,414.5 Z"/></g>
<g><path style="opacity:1" fill="#81a7ed" d="M 332.5,414.5 C 327.731,415.889 322.731,416.556 317.5,416.5C 317.5,416.167 317.5,415.833 317.5,415.5C 322.482,414.947 327.482,414.613 332.5,414.5 Z"/></g>
<g><path style="opacity:1" fill="#5b8eea" d="M 35.5,406.5 C 35.3338,412.842 35.5005,419.175 36,425.5C 37.3848,426.551 38.3848,427.884 39,429.5C 40.5581,428.655 41.5581,429.321 42,431.5C 42.3333,431.167 42.6667,430.833 43,430.5C 53.6738,437.42 63.6738,444.42 73,451.5C 73.3333,451.167 73.6667,450.833 74,450.5C 76.5087,451.96 79.0087,454.126 81.5,457C 82.8333,457.333 84.1667,457.667 85.5,458C 99.8089,467.948 113.809,477.281 127.5,486C 134.826,486.5 142.159,486.666 149.5,486.5C 129.976,487.885 110.309,487.718 90.5,486C 47.7632,476.355 29.4299,449.855 35.5,406.5 Z"/></g>
<g><path style="opacity:1" fill="#568ae9" d="M 419.5,412.5 C 420.191,415.697 421.857,418.364 424.5,420.5C 434.791,426.984 445.124,433.484 455.5,440C 457.025,441.009 458.692,441.509 460.5,441.5C 460.367,438.075 461.033,437.742 462.5,440.5C 460.138,450.234 455.471,458.567 448.5,465.5C 444.148,464.546 440.315,462.546 437,459.5C 428.35,454.546 419.517,449.046 410.5,443C 413.118,441.639 413.785,439.806 412.5,437.5C 417.452,429.967 419.786,421.634 419.5,412.5 Z"/></g>
<g><path style="opacity:1" fill="#5b8eea" d="M 412.5,437.5 C 413.785,439.806 413.118,441.639 410.5,443C 419.517,449.046 428.35,454.546 437,459.5C 440.315,462.546 444.148,464.546 448.5,465.5C 443.222,472.106 436.555,476.772 428.5,479.5C 425.159,480.005 421.826,480.172 418.5,480C 403.858,470.241 389.525,460.908 375.5,452C 378.797,451.796 381.797,450.963 384.5,449.5C 395.528,449.316 404.861,445.316 412.5,437.5 Z"/></g>
<g><path style="opacity:1" fill="#6293ec" d="M 384.5,449.5 C 381.797,450.963 378.797,451.796 375.5,452C 389.525,460.908 403.858,470.241 418.5,480C 421.826,480.172 425.159,480.005 428.5,479.5C 419.473,484.008 409.807,486.508 399.5,487C 382.837,487.5 366.17,487.667 349.5,487.5C 349.5,474.833 349.5,462.167 349.5,449.5C 361.167,449.5 372.833,449.5 384.5,449.5 Z"/></g>
</svg>
